<?xml version="1.0" encoding="utf-8"?>
<!-- Generator: Adobe Illustrator 27.5.0, SVG Export Plug-In . SVG Version: 6.00 Build 0)  -->
<svg version="1.1" id="Camada_1" xmlns="http://www.w3.org/2000/svg" xmlns:xlink="http://www.w3.org/1999/xlink" x="0px" y="0px"
	 viewBox="0 0 1300 1300" style="enable-background:new 0 0 1300 1300;" xml:space="preserve">
<g>
	<g>
		<g>
			<linearGradient id="SVGID_1_" gradientUnits="userSpaceOnUse" x1="657.6122" y1="369.3794" x2="896.9167" y2="369.3794">
				<stop  offset="0.0051" style="stop-color:#826AAF"/>
				<stop  offset="0.2602" style="stop-color:#522E91"/>
				<stop  offset="1" style="stop-color:#782B90"/>
			</linearGradient>
			<polygon style="fill:url(#SVGID_1_);" points="896.917,300.298 657.612,438.461 674.568,326.788 			"/>
			
				<linearGradient id="SVGID_00000089547828100298891620000018417743489642204059_" gradientUnits="userSpaceOnUse" x1="657.6122" y1="389.9557" x2="896.9167" y2="389.9557">
				<stop  offset="0" style="stop-color:#150958"/>
				<stop  offset="1" style="stop-color:#522E91"/>
			</linearGradient>
			<polygon style="fill:url(#SVGID_00000089547828100298891620000018417743489642204059_);" points="896.917,300.298 
				762.801,479.613 657.612,438.461 			"/>
		</g>
		<g>
			
				<linearGradient id="SVGID_00000008854517693590116690000011410878199339058586_" gradientUnits="userSpaceOnUse" x1="694.1169" y1="727.9703" x2="694.1169" y2="451.6452">
				<stop  offset="0" style="stop-color:#782B90"/>
				<stop  offset="0.6837" style="stop-color:#522E91"/>
				<stop  offset="0.9949" style="stop-color:#826AAF"/>
			</linearGradient>
			<polygon style="fill:url(#SVGID_00000008854517693590116690000011410878199339058586_);" points="650,451.645 650,727.97 
				738.234,522.165 			"/>
			
				<linearGradient id="SVGID_00000058579638181711927770000004048111350428382633_" gradientUnits="userSpaceOnUse" x1="605.8832" y1="727.9703" x2="605.8832" y2="451.6452">
				<stop  offset="0" style="stop-color:#150958"/>
				<stop  offset="1" style="stop-color:#522E91"/>
			</linearGradient>
			<polygon style="fill:url(#SVGID_00000058579638181711927770000004048111350428382633_);" points="561.766,522.165 650,451.645 
				650,727.97 			"/>
		</g>
		<g>
			
				<linearGradient id="SVGID_00000080904035606060575040000000423825722367057072_" gradientUnits="userSpaceOnUse" x1="403.0833" y1="389.9558" x2="642.388" y2="389.9558">
				<stop  offset="0.0051" style="stop-color:#826AAF"/>
				<stop  offset="0.4184" style="stop-color:#522E91"/>
				<stop  offset="1" style="stop-color:#782B90"/>
			</linearGradient>
			<polygon style="fill:url(#SVGID_00000080904035606060575040000000423825722367057072_);" points="642.388,438.461 
				403.083,300.298 537.199,479.613 			"/>
			
				<linearGradient id="SVGID_00000049927425940284413040000008984058221342222748_" gradientUnits="userSpaceOnUse" x1="403.0833" y1="369.3795" x2="642.388" y2="369.3795">
				<stop  offset="0" style="stop-color:#150958"/>
				<stop  offset="1" style="stop-color:#522E91"/>
			</linearGradient>
			<polygon style="fill:url(#SVGID_00000049927425940284413040000008984058221342222748_);" points="625.433,326.788 
				642.388,438.461 403.083,300.298 			"/>
		</g>
	</g>
	<g>
		
			<linearGradient id="SVGID_00000041268419254210624700000014939849312118837410_" gradientUnits="userSpaceOnUse" x1="706.5907" y1="903.6629" x2="706.5907" y2="763.6365">
			<stop  offset="0" style="stop-color:#522E91"/>
			<stop  offset="1" style="stop-color:#782B90"/>
		</linearGradient>
		<path style="fill:url(#SVGID_00000041268419254210624700000014939849312118837410_);" d="M717.375,903.663
			c-22.987,0-41.752-7.427-54.268-21.477c-10.815-12.142-16.827-29.102-16.93-47.759c-0.001-0.168,0.003-0.336,0.007-0.503
			l0.008-0.461c0.119-18.413,6.377-35.461,17.62-48.004c12.797-14.276,31.32-21.823,53.563-21.823
			c17.963,0,34.453,6.6,47.822,19.114l-14.501,14.006c-8.82-7.921-20.573-12.261-33.321-12.261c-33.9,0-49.308,24.578-49.538,48.938
			l-0.005,0.327c-0.004,0.232-0.008,0.464-0.006,0.695c0.194,22.485,13.287,48.742,49.549,48.742
			c12.592,0,25.686-5.021,34.683-13.206l14.947,15.113C753.945,897.255,736.831,903.663,717.375,903.663z"/>
		
			<linearGradient id="SVGID_00000132070949686936271390000006560260153824828054_" gradientUnits="userSpaceOnUse" x1="452.4184" y1="900.5057" x2="452.4184" y2="766.3983">
			<stop  offset="0" style="stop-color:#522E91"/>
			<stop  offset="1" style="stop-color:#782B90"/>
		</linearGradient>
		<polygon style="fill:url(#SVGID_00000132070949686936271390000006560260153824828054_);" points="441.397,900.506 
			441.397,786.074 397.597,786.074 397.597,766.398 507.24,766.398 507.24,786.074 463.44,786.074 463.44,900.506 		"/>
		
			<linearGradient id="SVGID_00000101104180565553981840000010148802386608127930_" gradientUnits="userSpaceOnUse" x1="576.314" y1="900.5057" x2="576.314" y2="766.3983">
			<stop  offset="0" style="stop-color:#522E91"/>
			<stop  offset="1" style="stop-color:#782B90"/>
		</linearGradient>
		<polygon style="fill:url(#SVGID_00000101104180565553981840000010148802386608127930_);" points="526.623,900.506 
			526.623,766.398 626.005,766.398 626.005,787.652 548.468,787.652 548.468,823.417 623.244,823.417 623.244,843.684 
			548.468,843.684 548.468,878.857 626.005,878.857 626.005,900.506 		"/>
		
			<linearGradient id="SVGID_00000105387861128630250730000015174715061184921223_" gradientUnits="userSpaceOnUse" x1="844.5234" y1="900.7029" x2="844.5234" y2="766.5955">
			<stop  offset="0" style="stop-color:#522E91"/>
			<stop  offset="1" style="stop-color:#782B90"/>
		</linearGradient>
		<polygon style="fill:url(#SVGID_00000105387861128630250730000015174715061184921223_);" points="880.556,900.703 
			880.556,844.868 808.687,844.868 808.687,900.703 786.644,900.703 786.644,766.596 808.687,766.596 808.687,824.798 
			880.556,824.798 880.556,766.596 902.403,766.596 902.403,900.703 		"/>
		<g>
			
				<linearGradient id="SVGID_00000150089037618451710170000007070365524749931945_" gradientUnits="userSpaceOnUse" x1="452.4185" y1="902.5057" x2="452.4185" y2="833.452">
				<stop  offset="0" style="stop-color:#522E91"/>
				<stop  offset="1" style="stop-color:#150958"/>
			</linearGradient>
			
				<rect x="439.397" y="833.452" style="fill:url(#SVGID_00000150089037618451710170000007070365524749931945_);" width="26.043" height="69.054"/>
			
				<linearGradient id="SVGID_00000077317218239862500320000006678387256355251609_" gradientUnits="userSpaceOnUse" x1="576.314" y1="902.5057" x2="576.314" y2="833.452">
				<stop  offset="0" style="stop-color:#522E91"/>
				<stop  offset="1" style="stop-color:#150958"/>
			</linearGradient>
			<path style="fill:url(#SVGID_00000077317218239862500320000006678387256355251609_);" d="M524.623,902.506h103.383v-25.648
				h-77.537v-31.173h74.775v-12.232H524.623C524.623,856.486,524.623,879.521,524.623,902.506z"/>
			
				<linearGradient id="SVGID_00000037677688805235224900000017172429056004289214_" gradientUnits="userSpaceOnUse" x1="707.0161" y1="905.6629" x2="707.0161" y2="833.452">
				<stop  offset="0" style="stop-color:#522E91"/>
				<stop  offset="1" style="stop-color:#150958"/>
			</linearGradient>
			<path style="fill:url(#SVGID_00000037677688805235224900000017172429056004289214_);" d="M644.177,834.438
				c0.197,35.908,21.9,71.225,73.197,71.225c19.927,0,38.275-6.512,52.48-20.52l-17.756-17.954
				c-9.076,9.076-22.689,14.009-34.725,14.009c-34.133,0-47.352-23.873-47.549-46.76c-0.003-0.328,0.008-0.658,0.011-0.986h-25.645
				C644.19,833.781,644.175,834.11,644.177,834.438z"/>
			
				<linearGradient id="SVGID_00000119082187337854481350000012010526564459376268_" gradientUnits="userSpaceOnUse" x1="844.5234" y1="902.7029" x2="844.5234" y2="833.452">
				<stop  offset="0" style="stop-color:#522E91"/>
				<stop  offset="1" style="stop-color:#150958"/>
			</linearGradient>
			<polygon style="fill:url(#SVGID_00000119082187337854481350000012010526564459376268_);" points="784.644,902.703 
				810.687,902.703 810.687,846.868 878.556,846.868 878.556,902.703 904.403,902.703 904.403,833.452 784.644,833.452 			"/>
			
				<linearGradient id="SVGID_00000012440603832408289670000001639336678852794557_" gradientUnits="userSpaceOnUse" x1="452.4184" y1="833.452" x2="452.4184" y2="764.3983">
				<stop  offset="0" style="stop-color:#522E91"/>
				<stop  offset="1" style="stop-color:#782B90"/>
			</linearGradient>
			<path style="fill:url(#SVGID_00000012440603832408289670000001639336678852794557_);" d="M509.24,788.074v-23.676
				c-40.051,0-73.789,0-113.642,0v23.676h43.8v45.378h26.043v-45.378H509.24z"/>
			
				<linearGradient id="SVGID_00000060001865575867741170000010350609315239804811_" gradientUnits="userSpaceOnUse" x1="576.314" y1="833.452" x2="576.314" y2="764.3983">
				<stop  offset="0" style="stop-color:#522E91"/>
				<stop  offset="1" style="stop-color:#782B90"/>
			</linearGradient>
			<path style="fill:url(#SVGID_00000060001865575867741170000010350609315239804811_);" d="M550.468,821.417v-31.765h77.537
				v-25.254H524.623c0,22.985,0,46.019,0,69.054h100.621v-12.035H550.468z"/>
			
				<linearGradient id="SVGID_00000173150645386459178860000016330267448296235178_" gradientUnits="userSpaceOnUse" x1="706.1358" y1="833.452" x2="706.1358" y2="761.6365">
				<stop  offset="0" style="stop-color:#522E91"/>
				<stop  offset="1" style="stop-color:#782B90"/>
			</linearGradient>
			<path style="fill:url(#SVGID_00000173150645386459178860000016330267448296235178_);" d="M717.375,786.496
				c12.035,0,24.268,4.143,33.343,13.021l17.362-16.771c-14.205-14.008-31.962-21.11-50.705-21.11
				c-49.461,0-72.951,36.031-73.182,71.816h25.645C670.052,810.653,684.505,786.496,717.375,786.496z"/>
			
				<linearGradient id="SVGID_00000153690985016218297180000003838719298079351432_" gradientUnits="userSpaceOnUse" x1="844.5234" y1="833.452" x2="844.5234" y2="764.5955">
				<stop  offset="0" style="stop-color:#522E91"/>
				<stop  offset="1" style="stop-color:#782B90"/>
			</linearGradient>
			<polygon style="fill:url(#SVGID_00000153690985016218297180000003838719298079351432_);" points="878.556,822.798 
				810.687,822.798 810.687,764.596 784.644,764.596 784.644,833.452 904.403,833.452 904.403,764.596 878.556,764.596 			"/>
		</g>
	</g>
	<g>
		<path style="fill:#150958;" d="M417.09,972.544c-3.473,3.474-7.988,5.141-12.503,5.141c-9.655,0-17.643-6.668-17.643-17.504
			c0-10.835,7.71-17.503,17.643-17.503c4.515,0,9.029,1.736,12.503,5.14l-2.223,2.153c-2.778-2.778-6.599-4.099-10.28-4.099
			c-7.779,0-14.309,5.071-14.309,14.309c0,9.238,6.529,14.309,14.309,14.309c3.681,0,7.432-1.459,10.21-4.237L417.09,972.544z"/>
		<path style="fill:#150958;" d="M423.13,960.25c0-10.904,7.779-17.851,17.434-17.851c9.654,0,17.434,6.946,17.434,17.851
			c0,10.905-7.779,17.573-17.434,17.573C430.909,977.823,423.13,971.155,423.13,960.25z M454.663,960.25
			c0-8.891-6.32-14.655-14.1-14.655s-14.1,5.765-14.1,14.655c0,8.891,6.321,14.239,14.1,14.239S454.663,969.14,454.663,960.25z"/>
		<path style="fill:#150958;" d="M516.687,977.337v-20.559c0-6.599-4.445-11.252-10.975-11.252c-6.529,0-11.043,4.861-11.043,11.46
			v20.351h-3.404v-20.351c0-6.599-4.515-11.391-11.043-11.391c-6.529,0-10.975,4.792-10.975,11.391v20.351h-3.403v-34.313h3.195
			l0.07,5.696c2.361-4.516,6.737-6.391,11.183-6.391c5.209,0,10.696,2.361,12.711,8.474c2.083-5.626,7.432-8.474,12.71-8.474
			c8.405,0,14.378,5.904,14.378,14.447v20.559H516.687z"/>
		<path style="fill:#150958;" d="M528.978,991.645v-48.621h3.334v8.127c2.708-5.21,8.196-8.613,14.864-8.613
			c9.308,0.348,16.67,6.599,16.67,17.643c0,11.53-7.779,17.781-17.434,17.781c-5.835,0-11.252-2.848-14.17-8.543v22.227H528.978z
			 M560.443,960.18c0-9.654-6.251-14.378-14.03-14.378c-7.988,0-13.892,6.043-13.892,14.447s6.042,14.447,13.892,14.447
			C554.192,974.697,560.443,969.836,560.443,960.18z"/>
		<path style="fill:#150958;" d="M605.171,943.024c0,11.461,0,22.852,0,34.313h-3.404v-7.293c-3.334,5.349-8.474,7.849-14.03,7.849
			c-9.585,0-17.434-7.224-17.434-17.712c0-10.488,7.849-17.573,17.434-17.573c5.557,0,11.183,2.57,14.03,7.919v-7.502H605.171z
			 M573.706,960.18c0,8.613,6.251,14.378,14.031,14.378c19.101,0,19.101-28.687,0-28.687
			C579.958,945.872,573.706,951.568,573.706,960.18z"/>
		<path style="fill:#150958;" d="M617.74,943.024v6.112c2.639-4.723,7.432-6.668,12.225-6.737c9.168,0,15.489,5.626,15.489,15.142
			v19.796h-3.403v-19.725c0-7.779-4.792-11.947-12.225-11.878c-7.084,0.069-12.016,5.418-12.016,12.503v19.1h-3.403v-34.313H617.74z
			"/>
		<path style="fill:#150958;" d="M681.501,943.024l-20.907,48.621h-3.612l6.321-14.726l-13.753-33.896h3.681l7.988,20.282
			l4.029,9.933l3.959-10.002l8.613-20.213H681.501z"/>
		<path style="fill:#150958;" d="M715.046,932.676v10.349h11.669v2.848h-11.669v20.907c0,4.653,0.973,7.918,6.32,7.918
			c1.667,0,3.543-0.556,5.279-1.389l1.181,2.778c-2.153,1.042-4.307,1.736-6.46,1.736c-7.293,0-9.654-4.307-9.654-11.044v-20.907
			h-7.293v-2.848h7.293v-10.002L715.046,932.676z"/>
		<path style="fill:#150958;" d="M767.555,943.024c0,11.461,0,22.852,0,34.313h-3.403v-7.293c-3.334,5.349-8.474,7.849-14.03,7.849
			c-9.585,0-17.434-7.224-17.434-17.712c0-10.488,7.849-17.573,17.434-17.573c5.557,0,11.183,2.57,14.03,7.919v-7.502H767.555z
			 M736.091,960.18c0,8.613,6.251,14.378,14.03,14.378c19.101,0,19.101-28.687,0-28.687
			C742.342,945.872,736.091,951.568,736.091,960.18z"/>
		<path style="fill:#150958;" d="M804.365,941.636l2.223,1.944l-3.334,3.89c2.431,2.64,4.236,6.112,4.236,11.669
			c0,5.974-3.542,12.017-9.238,14.586c6.043,2.153,9.377,6.391,9.377,12.295c0,9.237-7.224,13.683-16.322,13.683
			c-9.099,0-16.253-5.001-16.253-13.683h3.403c0,7.015,5.974,10.349,12.85,10.349c6.876,0,12.988-3.056,12.988-10.349
			c0-7.363-6.598-10.28-12.988-10.28c-9.933,0-16.114-7.432-16.114-16.601c0-10.696,7.224-16.739,16.114-16.739
			c3.473,0,7.085,1.25,9.725,3.126L804.365,941.636z M778.596,959.138c0,7.085,4.862,13.197,12.711,13.197
			c7.085,0,12.85-6.112,12.85-13.197c0-8.682-5.765-13.336-12.85-13.336C784.291,945.803,778.596,950.179,778.596,959.138z"/>
		<path style="fill:#150958;" d="M817.907,928.717v48.62h-3.403v-48.62H817.907z"/>
		<path style="fill:#150958;" d="M831.937,931.842c0,3.612-5.487,3.612-5.487,0C826.449,928.23,831.937,928.23,831.937,931.842z
			 M827.422,942.886v34.451h3.403v-34.451H827.422z"/>
		<path style="fill:#150958;" d="M843.882,943.024v6.112c2.64-4.723,7.432-6.668,12.225-6.737c9.168,0,15.489,5.626,15.489,15.142
			v19.796h-3.403v-19.725c0-7.779-4.793-11.947-12.225-11.878c-7.085,0.069-12.017,5.418-12.017,12.503v19.1h-3.403v-34.313H843.882
			z"/>
		<path style="fill:#150958;" d="M878.539,960.18c0-10.279,7.779-17.712,17.434-17.712c9.654,0,18.268,5.904,16.947,19.309h-30.908
			c0.694,8.058,6.876,12.711,13.961,12.711c4.515,0,9.793-1.806,12.363-5.21l2.431,1.945c-3.334,4.376-9.307,6.599-14.794,6.599
			C886.319,977.823,878.539,971.086,878.539,960.18z M909.865,958.792c-0.069-8.475-5.626-13.197-13.892-13.197
			c-7.085,0-13.197,4.792-13.961,13.197H909.865z"/>
	</g>
</g>
</svg>
